<svg width="20" height="20" viewBox="0 0 20 20" fill="none" xmlns="http://www.w3.org/2000/svg">
<path d="M10.0008 3.77416C10.953 2.92182 12.1954 2.46655 13.4728 2.50189C14.7502 2.53722 15.9656 3.06049 16.8692 3.96416C17.7719 4.86682 18.2953 6.08061 18.3318 7.35673C18.3684 8.63285 17.9154 9.87462 17.0658 10.8275L9.99916 17.9042L2.93415 10.8275C2.08353 9.87412 1.63016 8.63129 1.6671 7.35414C1.70405 6.077 2.22851 4.86245 3.13282 3.95985C4.03713 3.05725 5.25266 2.53508 6.52987 2.50055C7.80709 2.46601 9.04906 2.92174 10.0008 3.77416ZM15.6892 5.14166C15.0871 4.5401 14.2777 4.19172 13.427 4.16802C12.5763 4.14431 11.7487 4.44706 11.1142 5.01416L10.0017 6.01249L8.88832 5.01499C8.25336 4.44721 7.42508 4.14413 6.57362 4.168C5.72215 4.19186 4.91215 4.54087 4.30999 5.14332C3.71354 5.73974 3.36537 6.54011 3.33568 7.38307C3.30599 8.22604 3.59698 9.04892 4.14999 9.68582L9.99999 15.545L15.85 9.68666C16.4036 9.0495 16.6949 8.22603 16.6651 7.38247C16.6352 6.53891 16.2864 5.73809 15.6892 5.14166Z" fill="white"/>
</svg>
