<svg width="16" height="16" viewBox="0 0 16 16" fill="none" xmlns="http://www.w3.org/2000/svg">
<path d="M8.00004 1.33333C9.81137 1.33333 10.0374 1.34 10.748 1.37333C11.458 1.40667 11.9414 1.518 12.3667 1.68333C12.8067 1.85267 13.1774 2.082 13.548 2.452C13.887 2.78526 14.1493 3.18839 14.3167 3.63333C14.4814 4.058 14.5934 4.542 14.6267 5.252C14.658 5.96267 14.6667 6.18867 14.6667 8C14.6667 9.81133 14.66 10.0373 14.6267 10.748C14.5934 11.458 14.4814 11.9413 14.3167 12.3667C14.1498 12.8119 13.8875 13.2151 13.548 13.548C13.2147 13.8869 12.8116 14.1492 12.3667 14.3167C11.942 14.4813 11.458 14.5933 10.748 14.6267C10.0374 14.658 9.81137 14.6667 8.00004 14.6667C6.18871 14.6667 5.96271 14.66 5.25204 14.6267C4.54204 14.5933 4.05871 14.4813 3.63337 14.3167C3.18826 14.1496 2.78506 13.8873 2.45204 13.548C2.11298 13.2148 1.85066 12.8116 1.68337 12.3667C1.51804 11.942 1.40671 11.458 1.37337 10.748C1.34204 10.0373 1.33337 9.81133 1.33337 8C1.33337 6.18867 1.34004 5.96267 1.37337 5.252C1.40671 4.54133 1.51804 4.05867 1.68337 3.63333C1.8502 3.18812 2.11258 2.78488 2.45204 2.452C2.78515 2.11282 3.18833 1.85049 3.63337 1.68333C4.05871 1.518 4.54137 1.40667 5.25204 1.37333C5.96271 1.342 6.18871 1.33333 8.00004 1.33333ZM8.00004 4.66667C7.11599 4.66667 6.26814 5.01786 5.64302 5.64298C5.0179 6.2681 4.66671 7.11594 4.66671 8C4.66671 8.88405 5.0179 9.7319 5.64302 10.357C6.26814 10.9821 7.11599 11.3333 8.00004 11.3333C8.8841 11.3333 9.73194 10.9821 10.3571 10.357C10.9822 9.7319 11.3334 8.88405 11.3334 8C11.3334 7.11594 10.9822 6.2681 10.3571 5.64298C9.73194 5.01786 8.8841 4.66667 8.00004 4.66667ZM12.3334 4.5C12.3334 4.27899 12.2456 4.06702 12.0893 3.91074C11.933 3.75446 11.7211 3.66667 11.5 3.66667C11.279 3.66667 11.0671 3.75446 10.9108 3.91074C10.7545 4.06702 10.6667 4.27899 10.6667 4.5C10.6667 4.72101 10.7545 4.93298 10.9108 5.08926C11.0671 5.24554 11.279 5.33333 11.5 5.33333C11.7211 5.33333 11.933 5.24554 12.0893 5.08926C12.2456 4.93298 12.3334 4.72101 12.3334 4.5ZM8.00004 6C8.53047 6 9.03918 6.21071 9.41426 6.58579C9.78933 6.96086 10 7.46957 10 8C10 8.53043 9.78933 9.03914 9.41426 9.41421C9.03918 9.78929 8.53047 10 8.00004 10C7.46961 10 6.9609 9.78929 6.58583 9.41421C6.21075 9.03914 6.00004 8.53043 6.00004 8C6.00004 7.46957 6.21075 6.96086 6.58583 6.58579C6.9609 6.21071 7.46961 6 8.00004 6Z" fill="white" fill-opacity="0.7"/>
</svg>
