<svg width="16" height="16" viewBox="0 0 16 16" fill="none" xmlns="http://www.w3.org/2000/svg">
<path d="M8.00001 14.6667C4.31801 14.6667 1.33334 11.682 1.33334 8C1.33334 4.318 4.31801 1.33333 8.00001 1.33333C11.682 1.33333 14.6667 4.318 14.6667 8C14.6667 11.682 11.682 14.6667 8.00001 14.6667ZM7.33334 10V11.3333H8.66668V10H7.33334ZM8.66668 8.90333C9.20246 8.74185 9.66241 8.3933 9.96278 7.92116C10.2631 7.44902 10.3839 6.8847 10.3032 6.33098C10.2224 5.77725 9.94541 5.27096 9.52268 4.9043C9.09996 4.53765 8.55959 4.33502 8.00001 4.33333C7.46058 4.33329 6.93779 4.5201 6.52054 4.86199C6.10329 5.20389 5.81735 5.67975 5.71134 6.20867L7.01934 6.47067C7.05646 6.28495 7.14556 6.1136 7.27625 5.97654C7.40695 5.83949 7.57389 5.74236 7.75763 5.69647C7.94137 5.65058 8.13436 5.65781 8.31416 5.71731C8.49395 5.77682 8.65315 5.88616 8.77323 6.03261C8.89331 6.17906 8.96934 6.35659 8.99246 6.54456C9.01559 6.73253 8.98486 6.9232 8.90386 7.09439C8.82285 7.26558 8.6949 7.41024 8.53489 7.51155C8.37488 7.61286 8.1894 7.66665 8.00001 7.66667C7.8232 7.66667 7.65363 7.7369 7.52861 7.86193C7.40358 7.98695 7.33334 8.15652 7.33334 8.33333V9.33333H8.66668V8.90333Z" fill="white" fill-opacity="0.7"/>
</svg>
