<svg width="20" height="20" viewBox="0 0 20 20" fill="none" xmlns="http://www.w3.org/2000/svg">
<path d="M10 1.6665C12.2642 1.6665 12.5467 1.67484 13.435 1.7165C14.3225 1.75817 14.9267 1.89734 15.4583 2.104C16.0083 2.31567 16.4717 2.60234 16.935 3.06484C17.3587 3.48142 17.6866 3.98533 17.8958 4.5415C18.1017 5.07234 18.2417 5.67734 18.2833 6.56484C18.3225 7.45317 18.3333 7.73567 18.3333 9.99984C18.3333 12.264 18.325 12.5465 18.2833 13.4348C18.2417 14.3223 18.1017 14.9265 17.8958 15.4582C17.6872 16.0147 17.3593 16.5187 16.935 16.9348C16.5183 17.3584 16.0144 17.6863 15.4583 17.8957C14.9275 18.1015 14.3225 18.2415 13.435 18.2832C12.5467 18.3223 12.2642 18.3332 10 18.3332C7.73584 18.3332 7.45334 18.3248 6.565 18.2832C5.6775 18.2415 5.07334 18.1015 4.54167 17.8957C3.98528 17.6869 3.48128 17.359 3.06501 16.9348C2.64118 16.5183 2.31328 16.0144 2.10417 15.4582C1.89751 14.9273 1.75834 14.3223 1.71667 13.4348C1.67751 12.5465 1.66667 12.264 1.66667 9.99984C1.66667 7.73567 1.67501 7.45317 1.71667 6.56484C1.75834 5.6765 1.89751 5.07317 2.10417 4.5415C2.3127 3.98499 2.64067 3.48094 3.06501 3.06484C3.4814 2.64086 3.98536 2.31294 4.54167 2.104C5.07334 1.89734 5.67667 1.75817 6.565 1.7165C7.45334 1.67734 7.73584 1.6665 10 1.6665ZM10 5.83317C8.89494 5.83317 7.83513 6.27216 7.05373 7.05356C6.27233 7.83496 5.83334 8.89477 5.83334 9.99984C5.83334 11.1049 6.27233 12.1647 7.05373 12.9461C7.83513 13.7275 8.89494 14.1665 10 14.1665C11.1051 14.1665 12.1649 13.7275 12.9463 12.9461C13.7277 12.1647 14.1667 11.1049 14.1667 9.99984C14.1667 8.89477 13.7277 7.83496 12.9463 7.05356C12.1649 6.27216 11.1051 5.83317 10 5.83317V5.83317ZM15.4167 5.62484C15.4167 5.34857 15.3069 5.08362 15.1116 4.88827C14.9162 4.69292 14.6513 4.58317 14.375 4.58317C14.0987 4.58317 13.8338 4.69292 13.6384 4.88827C13.4431 5.08362 13.3333 5.34857 13.3333 5.62484C13.3333 5.9011 13.4431 6.16606 13.6384 6.36141C13.8338 6.55676 14.0987 6.6665 14.375 6.6665C14.6513 6.6665 14.9162 6.55676 15.1116 6.36141C15.3069 6.16606 15.4167 5.9011 15.4167 5.62484ZM10 7.49984C10.663 7.49984 11.2989 7.76323 11.7678 8.23207C12.2366 8.70091 12.5 9.3368 12.5 9.99984C12.5 10.6629 12.2366 11.2988 11.7678 11.7676C11.2989 12.2364 10.663 12.4998 10 12.4998C9.33696 12.4998 8.70108 12.2364 8.23224 11.7676C7.7634 11.2988 7.5 10.6629 7.5 9.99984C7.5 9.3368 7.7634 8.70091 8.23224 8.23207C8.70108 7.76323 9.33696 7.49984 10 7.49984V7.49984Z" fill="#767676"/>
</svg>
