<svg width="20" height="20" viewBox="0 0 20 20" fill="none" xmlns="http://www.w3.org/2000/svg">
<path d="M17.9525 5.41516C18.3333 6.90016 18.3333 10.0002 18.3333 10.0002C18.3333 10.0002 18.3333 13.1002 17.9525 14.5852C17.7408 15.406 17.1217 16.0518 16.3375 16.2702C14.9133 16.6668 10 16.6668 10 16.6668C10 16.6668 5.08917 16.6668 3.66251 16.2702C2.87501 16.0485 2.25667 15.4035 2.04751 14.5852C1.66667 13.1002 1.66667 10.0002 1.66667 10.0002C1.66667 10.0002 1.66667 6.90016 2.04751 5.41516C2.25917 4.59433 2.87834 3.9485 3.66251 3.73016C5.08917 3.3335 10 3.3335 10 3.3335C10 3.3335 14.9133 3.3335 16.3375 3.73016C17.125 3.95183 17.7433 4.59683 17.9525 5.41516V5.41516ZM8.33334 12.9168L13.3333 10.0002L8.33334 7.0835V12.9168Z" fill="#767676"/>
</svg>
