<svg width="16" height="16" viewBox="0 0 16 16" fill="none" xmlns="http://www.w3.org/2000/svg">
<path d="M14.7747 3.77067C14.2657 3.9958 13.726 4.14365 13.1734 4.20933C13.7559 3.86096 14.1918 3.31268 14.4 2.66667C13.8534 2.992 13.254 3.22 12.6294 3.34333C12.2098 2.89439 11.6536 2.59664 11.0473 2.49639C10.4411 2.39614 9.81866 2.49899 9.27688 2.78897C8.7351 3.07894 8.30429 3.53979 8.05144 4.09986C7.7986 4.65993 7.73787 5.28785 7.8787 5.886C6.77011 5.83044 5.68559 5.54235 4.69556 5.04044C3.70553 4.53854 2.83212 3.83403 2.13204 2.97267C1.88423 3.3983 1.75401 3.88215 1.7547 4.37467C1.7547 5.34133 2.2467 6.19533 2.9947 6.69533C2.55204 6.6814 2.11912 6.56185 1.73204 6.34667V6.38133C1.73217 7.02513 1.95495 7.64908 2.3626 8.14737C2.77025 8.64567 3.33769 8.98765 3.9687 9.11533C3.55778 9.22669 3.12691 9.24311 2.7087 9.16333C2.88661 9.71749 3.23337 10.2021 3.70043 10.5494C4.16749 10.8967 4.73145 11.0892 5.31337 11.1C4.73502 11.5542 4.07282 11.89 3.36462 12.0881C2.65642 12.2862 1.91612 12.3428 1.18604 12.2547C2.4605 13.0743 3.9441 13.5094 5.45937 13.508C10.588 13.508 13.3927 9.25933 13.3927 5.57467C13.3927 5.45467 13.3894 5.33333 13.384 5.21467C13.9299 4.82011 14.4011 4.33135 14.7754 3.77133L14.7747 3.77067Z" fill="white" fill-opacity="0.7"/>
</svg>
