<svg width="16" height="16" viewBox="0 0 16 16" fill="none" xmlns="http://www.w3.org/2000/svg">
<path d="M1.33605 14.6667L2.23738 11.3547C1.64347 10.3366 1.33145 9.17866 1.33338 8C1.33338 4.318 4.31805 1.33333 8.00005 1.33333C11.682 1.33333 14.6667 4.318 14.6667 8C14.6667 11.682 11.682 14.6667 8.00005 14.6667C6.8219 14.6686 5.66449 14.3568 4.64672 13.7633L1.33605 14.6667ZM5.59405 4.872C5.50796 4.87735 5.42383 4.90002 5.34672 4.93867C5.2744 4.97962 5.20838 5.03082 5.15072 5.09067C5.07072 5.166 5.02538 5.23133 4.97672 5.29467C4.73032 5.61533 4.59779 6.00895 4.60005 6.41333C4.60138 6.74 4.68672 7.058 4.82005 7.35533C5.09272 7.95667 5.54138 8.59333 6.13405 9.18333C6.27672 9.32533 6.41605 9.468 6.56605 9.60067C7.30164 10.2483 8.17822 10.7154 9.12605 10.9647L9.50538 11.0227C9.62872 11.0293 9.75205 11.02 9.87605 11.014C10.0702 11.004 10.2598 10.9514 10.4314 10.86C10.5187 10.815 10.6039 10.7661 10.6867 10.7133C10.6867 10.7133 10.7154 10.6947 10.7701 10.6533C10.8601 10.5867 10.9154 10.5393 10.9901 10.4613C11.0454 10.404 11.0934 10.3367 11.13 10.26C11.182 10.1513 11.234 9.944 11.2554 9.77133C11.2714 9.63933 11.2667 9.56733 11.2647 9.52267C11.262 9.45133 11.2027 9.37733 11.1381 9.346L10.75 9.172C10.75 9.172 10.17 8.91933 9.81605 8.758C9.77873 8.74173 9.73873 8.73246 9.69805 8.73067C9.65244 8.72598 9.60635 8.73111 9.56288 8.74572C9.51942 8.76032 9.47958 8.78406 9.44605 8.81533V8.814C9.44272 8.814 9.39805 8.852 8.91605 9.436C8.88838 9.47317 8.85028 9.50127 8.80658 9.5167C8.76289 9.53214 8.71559 9.53421 8.67072 9.52267C8.62728 9.51105 8.58473 9.49635 8.54338 9.47867C8.46072 9.444 8.43205 9.43067 8.37538 9.406L8.37205 9.40467C7.99066 9.23815 7.63753 9.01323 7.32538 8.738C7.24138 8.66467 7.16338 8.58467 7.08338 8.50733C6.8211 8.25616 6.59253 7.97201 6.40338 7.662L6.36405 7.59867C6.3358 7.55611 6.31296 7.5102 6.29605 7.462C6.27072 7.364 6.33672 7.28533 6.33672 7.28533C6.33672 7.28533 6.49872 7.108 6.57405 7.012C6.63678 6.93221 6.6953 6.84921 6.74938 6.76333C6.82805 6.63667 6.85272 6.50667 6.81138 6.406C6.62472 5.95 6.43138 5.496 6.23272 5.04533C6.19338 4.956 6.07672 4.892 5.97072 4.87933C5.93472 4.87533 5.89872 4.87133 5.86272 4.86867C5.77319 4.86422 5.68347 4.86511 5.59405 4.87133V4.872Z" fill="white" fill-opacity="0.7"/>
</svg>
