<svg width="20" height="20" viewBox="0 0 20 20" fill="none" xmlns="http://www.w3.org/2000/svg">
<path d="M1.66997 18.3332L2.79664 14.1932C2.05425 12.9205 1.66422 11.4732 1.66664 9.99984C1.66664 5.39734 5.39747 1.6665 9.99997 1.6665C14.6025 1.6665 18.3333 5.39734 18.3333 9.99984C18.3333 14.6023 14.6025 18.3332 9.99997 18.3332C8.52729 18.3355 7.08052 17.9458 5.8083 17.204L1.66997 18.3332ZM6.99247 6.08984C6.88486 6.09652 6.7797 6.12486 6.6833 6.17317C6.59291 6.22436 6.51038 6.28836 6.4383 6.36317C6.3383 6.45734 6.28164 6.539 6.2208 6.61817C5.91281 7.019 5.74715 7.51102 5.74997 8.0165C5.75164 8.42484 5.8583 8.82234 6.02497 9.194C6.3658 9.94567 6.92664 10.7415 7.66747 11.479C7.8458 11.6565 8.01997 11.8348 8.20747 12.0007C9.12696 12.8102 10.2227 13.394 11.4075 13.7057L11.8816 13.7782C12.0358 13.7865 12.19 13.7748 12.345 13.7673C12.5877 13.7548 12.8246 13.6891 13.0391 13.5748C13.1483 13.5186 13.2548 13.4574 13.3583 13.3915C13.3583 13.3915 13.3941 13.3682 13.4625 13.3165C13.575 13.2332 13.6441 13.174 13.7375 13.0765C13.8066 13.0048 13.8666 12.9207 13.9125 12.8248C13.9775 12.689 14.0425 12.4298 14.0691 12.214C14.0891 12.049 14.0833 11.959 14.0808 11.9032C14.0775 11.814 14.0033 11.7215 13.9225 11.6823L13.4375 11.4648C13.4375 11.4648 12.7125 11.149 12.27 10.9473C12.2233 10.927 12.1733 10.9154 12.1225 10.9132C12.0655 10.9073 12.0078 10.9137 11.9535 10.932C11.8992 10.9502 11.8494 10.9799 11.8075 11.019V11.0173C11.8033 11.0173 11.7475 11.0648 11.145 11.7948C11.1104 11.8413 11.0628 11.8764 11.0081 11.8957C10.9535 11.915 10.8944 11.9176 10.8383 11.9032C10.784 11.8887 10.7308 11.8703 10.6791 11.8482C10.5758 11.8048 10.54 11.7882 10.4691 11.7573L10.465 11.7557C9.98823 11.5475 9.54682 11.2664 9.15664 10.9223C9.05164 10.8307 8.95414 10.7307 8.85414 10.634C8.52629 10.32 8.24057 9.96485 8.00414 9.57734L7.95497 9.49817C7.91966 9.44497 7.8911 9.38759 7.86997 9.32734C7.8383 9.20484 7.9208 9.1065 7.9208 9.1065C7.9208 9.1065 8.1233 8.88484 8.21747 8.76484C8.29588 8.6651 8.36903 8.56135 8.43664 8.454C8.53497 8.29567 8.5658 8.13317 8.51414 8.00734C8.2808 7.43734 8.03914 6.86984 7.7908 6.3065C7.74164 6.19484 7.5958 6.11484 7.4633 6.099C7.4183 6.094 7.3733 6.089 7.3283 6.08567C7.21639 6.08011 7.10425 6.08122 6.99247 6.089V6.08984Z" fill="#767676"/>
</svg>
